<?xml version="1.0" encoding="UTF-8" ?>
<!DOCTYPE svg PUBLIC "-//W3C//DTD SVG 1.1//EN" "http://www.w3.org/Graphics/SVG/1.1/DTD/svg11.dtd">
<svg width="413pt" height="414pt" viewBox="0 0 413 414" version="1.1" xmlns="http://www.w3.org/2000/svg">
<g id="#ffffffff">
</g>
<g id="#000000ff">
<path fill="#000000" opacity="1.00" d=" M 190.45 7.84 C 228.75 4.24 268.03 11.96 302.05 29.92 C 353.76 56.93 392.51 107.51 404.48 164.67 C 413.56 206.21 408.89 250.61 391.31 289.32 C 367.16 343.33 317.87 385.31 260.60 400.28 C 218.94 411.42 173.69 408.66 133.76 392.34 C 81.33 371.29 38.98 326.90 20.36 273.57 C 7.36 236.89 5.47 196.39 14.91 158.64 C 23.03 125.64 39.91 94.90 63.18 70.17 C 96.13 34.82 142.29 12.11 190.45 7.84 M 187.43 17.72 C 129.43 23.86 75.55 58.69 45.73 108.76 C 24.62 143.62 15.34 185.37 19.44 225.90 C 25.18 289.80 66.02 348.94 123.52 377.28 C 183.44 407.99 259.65 403.32 315.18 365.16 C 370.12 328.99 403.35 262.73 399.22 197.03 C 396.51 131.35 356.59 69.06 298.34 38.73 C 264.65 20.66 225.39 13.40 187.43 17.72 Z" />
<path fill="#000000" opacity="1.00" d=" M 231.26 148.70 C 233.26 148.37 235.21 149.06 237.05 149.78 C 283.41 170.14 329.84 190.38 376.24 210.67 C 378.60 211.72 381.30 213.76 380.24 216.71 C 377.46 218.76 374.05 219.59 370.84 220.69 C 325.03 236.18 279.30 251.95 233.47 267.38 C 229.06 269.49 227.66 264.37 226.81 261.13 C 216.57 224.54 216.65 184.05 231.26 148.70 M 235.07 156.25 C 223.52 189.86 223.62 226.92 233.46 260.93 C 278.41 245.61 323.36 230.28 368.29 214.90 C 324.05 194.98 279.44 175.89 235.07 156.25 Z" />
<path fill="#000000" opacity="1.00" d=" M 182.03 151.09 C 184.62 149.70 187.66 150.58 188.24 153.69 C 200.44 191.26 201.00 233.30 186.61 270.34 C 180.88 268.70 175.41 266.31 169.95 263.95 C 126.77 245.85 83.51 227.90 40.35 209.74 C 36.72 208.97 34.67 203.46 39.22 202.41 C 86.77 185.17 134.44 168.21 182.03 151.09 M 48.69 205.62 C 93.24 224.79 138.10 243.25 182.83 262.01 C 193.89 228.28 193.01 191.31 182.84 157.48 C 138.03 173.27 93.40 189.56 48.69 205.62 Z" />
<path fill="#000000" opacity="1.00" d=" M 247.31 187.39 C 247.65 182.51 252.50 177.68 257.50 179.58 C 260.64 185.40 251.86 188.71 247.31 187.39 Z" />
<path fill="#000000" opacity="1.00" d=" M 161.42 189.13 C 162.24 185.44 164.67 181.72 168.95 182.09 C 172.18 181.36 174.78 184.66 173.03 187.57 C 169.53 189.60 165.33 189.87 161.42 189.13 Z" />
<path fill="#000000" opacity="1.00" d=" M 138.37 189.18 C 148.63 185.93 159.50 196.46 156.71 206.82 C 154.87 217.87 139.35 222.41 131.76 214.23 C 123.42 206.88 127.51 191.48 138.37 189.18 M 139.59 195.56 C 133.38 196.98 131.25 205.82 135.99 210.02 C 140.39 214.51 149.05 212.05 150.26 205.82 C 152.01 199.77 145.59 193.52 139.59 195.56 Z" />
<path fill="#000000" opacity="1.00" d=" M 283.54 189.62 C 287.80 189.70 292.32 189.96 296.06 192.24 C 298.22 200.93 280.63 197.48 283.54 189.62 Z" />
<path fill="#000000" opacity="1.00" d=" M 87.74 200.83 C 91.25 199.72 94.98 199.82 98.62 199.75 C 101.12 208.04 84.12 209.27 87.74 200.83 Z" />
<path fill="#000000" opacity="1.00" d=" M 269.48 201.51 C 277.68 198.02 287.91 203.73 289.37 212.48 C 291.35 220.88 284.52 229.86 275.91 230.24 C 268.48 231.05 261.17 225.32 260.07 217.95 C 258.79 211.13 262.94 203.84 269.48 201.51 M 271.53 207.37 C 265.40 209.70 264.71 219.35 270.47 222.51 C 275.88 226.19 284.04 221.56 283.55 215.00 C 283.66 209.05 276.85 204.78 271.53 207.37 Z" />
<path fill="#000000" opacity="1.00" d=" M 318.85 214.18 C 322.49 213.66 326.17 213.51 329.85 213.72 C 330.77 220.87 323.74 219.95 318.79 219.94 C 318.78 218.01 318.80 216.10 318.85 214.18 Z" />
<path fill="#000000" opacity="1.00" d=" M 122.46 222.35 C 127.45 221.23 134.98 222.85 133.76 229.47 C 130.07 229.45 126.26 229.40 122.80 227.98 C 120.50 227.14 120.31 223.48 122.46 222.35 Z" />
<path fill="#000000" opacity="1.00" d=" M 249.37 229.15 C 252.27 227.70 254.72 229.70 254.40 232.83 C 252.41 236.53 245.92 238.02 243.33 234.60 C 241.68 230.63 246.52 229.61 249.37 229.15 Z" />
<path fill="#000000" opacity="1.00" d=" M 159.33 234.15 C 162.54 232.47 165.92 231.11 169.50 230.46 C 170.65 236.63 164.88 240.00 159.45 239.61 C 159.41 237.79 159.36 235.97 159.33 234.15 Z" />
</g>
</svg>
